<?xml version="1.0" standalone="no"?>
<!DOCTYPE svg PUBLIC "-//W3C//DTD SVG 20010904//EN"
 "http://www.w3.org/TR/2001/REC-SVG-20010904/DTD/svg10.dtd">
<svg version="1.0" xmlns="http://www.w3.org/2000/svg"
 width="2080.000000pt" height="2080.000000pt" viewBox="0 0 2080.000000 2080.000000"
 preserveAspectRatio="xMidYMid meet">

<g transform="translate(0.000000,2080.000000) scale(0.100000,-0.100000)"
fill="#99999999" stroke="none">
<path d="M9385 14800 c-81 -32 -120 -73 -232 -244 -190 -290 -249 -379 -328
-501 -42 -66 -110 -169 -150 -230 -40 -60 -107 -164 -150 -230 -43 -66 -115
-176 -160 -245 -45 -69 -120 -183 -167 -255 -123 -188 -122 -185 -123 -290 0
-90 0 -90 51 -185 96 -178 230 -425 263 -485 18 -33 51 -94 74 -135 22 -41 59
-109 82 -150 23 -41 65 -118 93 -170 174 -323 187 -345 213 -343 13 2 83 10
154 18 72 9 210 19 307 22 97 3 182 9 188 13 8 5 3 22 -18 56 -16 27 -52 92
-79 144 -28 52 -61 115 -75 140 -14 25 -67 122 -118 215 -51 94 -96 175 -100
180 -4 6 -38 69 -75 140 -37 72 -71 135 -75 140 -4 6 -26 44 -48 85 -38 71
-50 94 -128 236 l-34 60 43 66 c23 36 60 93 82 127 22 34 81 124 130 200 50
75 118 179 151 231 350 537 307 478 328 461 9 -7 16 -18 16 -23 0 -5 20 -43
43 -86 24 -42 63 -113 87 -157 23 -44 50 -93 60 -110 20 -34 66 -119 136 -250
26 -49 67 -126 92 -170 60 -108 80 -145 259 -475 86 -157 182 -334 215 -395
153 -278 408 -747 445 -815 79 -146 116 -215 120 -219 1 -2 51 -21 110 -42
213 -74 349 -130 531 -220 138 -68 187 -88 193 -78 4 7 5 36 3 63 -6 56 -46
142 -199 421 -179 327 -509 932 -603 1105 -52 96 -105 193 -117 215 -12 22
-55 101 -95 175 -39 74 -80 149 -90 165 -10 17 -47 84 -82 150 -36 66 -75 138
-88 160 -12 22 -45 83 -73 135 -27 52 -68 129 -92 170 -23 41 -59 107 -80 145
-20 39 -63 117 -95 175 -31 58 -98 179 -147 270 -309 565 -309 567 -401 611
-66 32 -178 36 -247 9z"/>
<path d="M9855 10785 c-663 -69 -1298 -296 -1854 -664 -379 -251 -640 -474
-925 -793 -183 -204 -160 -176 -311 -373 -58 -75 -230 -328 -267 -391 -9 -16
-40 -67 -68 -114 -143 -231 -350 -678 -399 -860 -32 -116 -74 -568 -65 -699
21 -323 194 -599 464 -739 75 -39 131 -61 173 -67 227 -34 332 -27 507 37 30
11 217 89 416 174 198 85 367 154 375 154 8 0 19 4 25 9 5 5 101 48 214 96
278 117 330 142 330 156 0 6 -31 88 -69 183 -38 94 -94 237 -126 319 -31 81
-60 147 -64 147 -7 0 -199 -78 -246 -100 -43 -20 -224 -90 -295 -115 -41 -14
-79 -31 -85 -38 -5 -7 -39 -25 -75 -39 -115 -46 -392 -158 -502 -204 -128 -53
-184 -57 -239 -20 -57 39 -74 85 -72 191 4 169 59 443 118 592 34 85 160 336
212 423 21 36 52 87 68 114 94 156 299 440 399 554 114 129 159 177 240 257
50 49 129 123 176 164 47 41 92 80 100 88 102 94 424 318 595 413 380 212 818
363 1200 414 229 31 261 33 440 35 154 1 278 -7 505 -34 284 -34 731 -183 991
-331 43 -24 81 -44 84 -44 18 0 335 -221 421 -294 340 -285 485 -466 791 -986
47 -80 93 -156 103 -170 9 -14 49 -81 87 -150 221 -396 613 -1039 698 -1145
17 -22 48 -68 69 -102 41 -67 43 -98 8 -120 -25 -15 -801 -213 -837 -213 -54
0 -22 -46 -465 655 -70 110 -234 369 -365 575 -131 206 -323 510 -428 675
-104 165 -203 314 -220 332 -46 49 -117 75 -223 81 -108 5 -193 -16 -284 -71
-74 -45 -103 -94 -96 -165 5 -61 25 -98 165 -316 54 -83 121 -191 151 -241 29
-49 175 -288 323 -530 412 -672 858 -1397 873 -1422 43 -68 177 -123 306 -125
82 -1 279 45 1028 241 63 16 277 71 475 121 198 50 370 98 383 106 12 8 36 33
52 56 37 50 41 122 11 172 -898 1480 -1252 2060 -1340 2191 -218 324 -264 393
-284 420 -324 446 -766 839 -1227 1092 -219 120 -499 238 -706 298 -47 14 -89
27 -93 29 -4 3 -41 12 -82 21 -41 9 -92 21 -114 26 -56 13 -319 56 -385 64
-120 14 -634 14 -765 0z"/>
</g>
</svg>
